<svg xmlns="http://www.w3.org/2000/svg" viewBox="0 0 24 24" fill="none" stroke="currentColor" stroke-width="2" stroke-linecap="round" stroke-linejoin="round">
  <path d="M6.5 14.5c-1.4-.8-2.3-2.2-2.3-3.9 0-2.6 2.1-4.6 4.7-4.6 2 0 3.7 1.2 4.3 3"/>
  <path d="M17.5 9.5c1.4.8 2.3 2.2 2.3 3.9 0 2.6-2.1 4.6-4.7 4.6-2 0-3.7-1.2-4.3-3"/>
  <path d="M14.5 5.8 13.3 9l-3.2-1.1"/>
  <path d="m9.5 18.2 1.2-3.2 3.2 1.1"/>
  <path d="M8.3 12.6c.7.8 1.6 1.2 2.7 1.2h.8"/>
  <path d="M15.7 11.4c-.7-.8-1.6-1.2-2.7-1.2h-.8"/>
  <path d="M6.5 18.5c1.8-2.5 4.2-3.1 7-2.1-1.7 2.7-4.2 3.5-7 2.1Z"/>
</svg>
